<?xml version="1.0" encoding="UTF-8" standalone="no"?>
<svg width="454px" height="91px" viewBox="0 0 454 91" version="1.1" xmlns="http://www.w3.org/2000/svg" xmlns:xlink="http://www.w3.org/1999/xlink">
    <!-- Generator: Sketch 40.1 (33804) - http://www.bohemiancoding.com/sketch -->
    <title>brand</title>
    <desc>Created with Sketch.</desc>
    <defs>
        <path d="M28.3653327,0 C12.6984141,0 0,12.45418 0,27.8164425 C0,49.0281436 22.9575656,72 28.4569322,72 C33.9562988,72 56.7272727,49.0281436 56.7272727,27.8164425 C56.7272727,12.45418 44.0288586,0 28.3653327,0 Z M15.8836364,27.9196936 C15.8836364,37.1998128 25.9849652,47.25 28.4046865,47.25 C30.8244078,47.25 40.8436364,37.1998128 40.8436364,27.9196936 C40.8436364,21.1987037 35.2563342,15.75 28.3643827,15.75 C21.4709386,15.75 15.8836364,21.1987037 15.8836364,27.9196936 Z" id="path-1"></path>
    </defs>
    <g id="Page-1" stroke="none" stroke-width="1" fill="none" fill-rule="evenodd">
        <g id="brand">
            <g id="symbol">
                <mask id="mask-2" fill="white">
                    <use xlink:href="#path-1"></use>
                </mask>
                <use id="Combined-Shape" fill="#FFFFFF" xlink:href="#path-1"></use>
                <g id="segments" mask="url(#mask-2)" fill="#6891B2">
                    <path d="M28.3636364,72.1032715 L56.7272727,72.1032715 L56.7272727,0 L28.3636364,28.125 L56.7272727,56.25 L56.7272727,72.1032715 L28.3636364,72.1032715 Z" id="right" opacity="0.2"></path>
                    <path d="M28.3636364,72.1032715 L56.7272727,72.1032715 L56.7272727,56.25 L28.3636364,28.125 L0,56.25 L0,72.1032715 L28.3636364,72.1032715 Z" id="bottom" opacity="0.2"></path>
                    <path d="M28.3636364,72.1032715 L0,72.1032715 L0,0 L28.3636364,28.125 L0,56.25 L0,72.1032715 L28.3636364,72.1032715 Z" id="left" opacity="0.1"></path>
                </g>
                <ellipse id="dot" fill="#0BF5AC" cx="28.3636364" cy="28.125" rx="5.67272727" ry="5.625"></ellipse>
            </g>
            <g id="logo" transform="translate(73.000000, 0.000000)" fill="#FFFFFF">
                <g>
                    <path d="M4.8,28.9200031 C7.2800124,27.8799979 10.4799804,26.9000077 14.4,25.9800031 C18.3200196,25.0599985 23.27997,24.6000031 29.28,24.6000031 C38.2400448,24.6000031 44.7999792,26.7599815 48.96,31.0800031 C53.1200208,35.4000247 55.2,41.5199635 55.2,49.4400031 L55.2,84.3600031 C55.2,86.0400115 54.8800032,87.1999999 54.24,87.8400031 C53.5999968,88.4800063 52.480008,88.8000031 50.88,88.8000031 L41.52,88.8000031 C39.8399916,88.8000031 38.6800032,88.4800063 38.04,87.8400031 C37.3999968,87.1999999 37.08,86.0400115 37.08,84.3600031 L37.08,50.0400031 C37.08,46.9199875 36.2400084,44.6400103 34.56,43.2000031 C32.8799916,41.7599959 30.3200172,41.0400031 26.88,41.0400031 C23.7599844,41.0400031 20.9600124,41.3999995 18.48,42.1200031 C18.2399988,42.1200031 18.12,42.2800015 18.12,42.6000031 L18.12,84.3600031 C18.12,86.0400115 17.8000032,87.1999999 17.16,87.8400031 C16.5199968,88.4800063 15.3600084,88.8000031 13.68,88.8000031 L4.44,88.8000031 C2.7599916,88.8000031 1.6000032,88.4800063 0.96,87.8400031 C0.3199968,87.1999999 0,86.0400115 0,84.3600031 L0,35.8800031 C0,33.8799931 0.299997,32.4200077 0.9,31.5000031 C1.500003,30.5799985 2.79999,29.7200071 4.8,28.9200031 L4.8,28.9200031 Z M65.92,49.9200031 C65.92,41.9999635 68.319976,35.8000255 73.12,31.3200031 C77.920024,26.8399807 85.0399528,24.6000031 94.48,24.6000031 C104.000048,24.6000031 111.159976,26.8399807 115.96,31.3200031 C120.760024,35.8000255 123.16,41.9999635 123.16,49.9200031 L123.16,65.4000031 C123.16,73.3200427 120.760024,79.4999809 115.96,83.9400031 C111.159976,88.3800253 104.000048,90.6000031 94.48,90.6000031 C85.0399528,90.6000031 77.920024,88.3800253 73.12,83.9400031 C68.319976,79.4999809 65.92,73.3200427 65.92,65.4000031 L65.92,49.9200031 Z M105.04,49.6800031 C105.04,43.6799731 101.520035,40.6800031 94.48,40.6800031 C87.5199652,40.6800031 84.04,43.6799731 84.04,49.6800031 L84.04,65.5200031 C84.04,68.4000175 84.8999914,70.6199953 86.62,72.1800031 C88.3400086,73.7400109 90.9599824,74.5200031 94.48,74.5200031 C98.080018,74.5200031 100.739991,73.7400109 102.46,72.1800031 C104.180009,70.6199953 105.04,68.4000175 105.04,65.5200031 L105.04,49.6800031 Z M151.84,84.36 C151.84,86.0400084 151.520003,87.1999968 150.88,87.84 C150.239997,88.4800032 149.080008,88.8 147.4,88.8 L138.04,88.8 C136.439992,88.8 135.320003,88.4800032 134.68,87.84 C134.039997,87.1999968 133.72,86.0400084 133.72,84.36 L133.72,4.44 C133.72,2.7599916 134.039997,1.6000032 134.68,0.96 C135.320003,0.3199968 136.439992,0 138.04,0 L147.4,0 C149.080008,0 150.239997,0.3199968 150.88,0.96 C151.520003,1.6000032 151.84,2.7599916 151.84,4.44 L151.84,84.36 Z M162.28,49.9199908 C162.28,41.9999512 164.679976,35.8000132 169.48,31.3199908 C174.280024,26.8399684 181.399953,24.5999908 190.84,24.5999908 C200.360048,24.5999908 207.519976,26.8399684 212.32,31.3199908 C217.120024,35.8000132 219.52,41.9999512 219.52,49.9199908 L219.52,65.3999908 C219.52,73.3200304 217.120024,79.4999686 212.32,83.9399908 C207.519976,88.380013 200.360048,90.5999908 190.84,90.5999908 C181.399953,90.5999908 174.280024,88.380013 169.48,83.9399908 C164.679976,79.4999686 162.28,73.3200304 162.28,65.3999908 L162.28,49.9199908 Z M201.4,49.6800031 C201.4,43.6799731 197.880035,40.6800031 190.84,40.6800031 C183.879965,40.6800031 180.4,43.6799731 180.4,49.6800031 L180.4,65.5200031 C180.4,68.4000175 181.259991,70.6199953 182.98,72.1800031 C184.700009,73.7400109 187.319982,74.5200031 190.84,74.5200031 C194.440018,74.5200031 197.099991,73.7400109 198.82,72.1800031 C200.540009,70.6199953 201.4,68.4000175 201.4,65.5200031 L201.4,49.6800031 Z M306.32,1.52587872e-05 C309.600016,1.52587872e-05 311.839994,0.600009259 313.04,1.80001526 C314.240006,3.00002126 314.84,5.23999886 314.84,8.52001526 L314.84,9.72001526 C314.84,13.0000317 314.240006,15.2400093 313.04,16.4400153 C311.839994,17.6400213 309.600016,18.2400153 306.32,18.2400153 L303.8,18.2400153 C300.519984,18.2400153 298.280006,17.6400213 297.08,16.4400153 C295.879994,15.2400093 295.28,13.0000317 295.28,9.72001526 L295.28,8.52001526 C295.28,5.23999886 295.879994,3.00002126 297.08,1.80001526 C298.280006,0.600009259 300.519984,1.52587872e-05 303.8,1.52587872e-05 L306.32,1.52587872e-05 Z M309.8,26.4000031 C311.400008,26.4000031 312.519997,26.7199999 313.16,27.3600031 C313.800003,28.0000063 314.12,29.1599947 314.12,30.8400031 L314.12,84.3600031 C314.12,86.0400115 313.800003,87.1999999 313.16,87.8400031 C312.519997,88.4800063 311.400008,88.8000031 309.8,88.8000031 L300.44,88.8000031 C298.759992,88.8000031 297.600003,88.4800063 296.96,87.8400031 C296.319997,87.1999999 296,86.0400115 296,84.3600031 L296,30.8400031 C296,29.1599947 296.319997,28.0000063 296.96,27.3600031 C297.600003,26.7199999 298.759992,26.4000031 300.44,26.4000031 L309.8,26.4000031 Z M325.96,44.6400031 C325.96,41.6799883 326.499995,38.9800153 327.58,36.5400031 C328.660005,34.0999909 330.279989,32.0000119 332.44,30.2400031 C334.600011,28.4799943 337.279984,27.1000081 340.48,26.1000031 C343.680016,25.0999981 347.439978,24.6000031 351.76,24.6000031 C358.960036,24.6000031 364.679979,25.7599915 368.92,28.0800031 C373.160021,30.4000147 376.31999,33.5199835 378.4,37.4400031 C379.280004,39.0400111 379.500002,40.3199983 379.06,41.2800031 C378.619998,42.2400079 377.600008,43.0799995 376,43.8000031 L368.92,46.8000031 C367.239992,47.5200067 366.040004,47.7200047 365.32,47.4000031 C364.599996,47.0800015 363.760005,46.2400099 362.8,44.8800031 C361.919996,43.5999967 360.720008,42.5200075 359.2,41.6400031 C357.679992,40.7599987 355.400015,40.3200031 352.36,40.3200031 C349.079984,40.3200031 346.780007,40.6799995 345.46,41.4000031 C344.139993,42.1200067 343.48,43.1999959 343.48,44.6400031 C343.48,46.4800123 344.359991,47.7399997 346.12,48.4200031 C347.880009,49.1000065 350.879979,49.6400011 355.12,50.0400031 C359.12002,50.4400051 362.699984,51.0199993 365.86,51.7800031 C369.020016,52.5400069 371.679989,53.6599957 373.84,55.1400031 C376.000011,56.6200105 377.659994,58.5199915 378.82,60.8400031 C379.980006,63.1600147 380.56,66.1199851 380.56,69.7200031 C380.56,75.9600343 378.260023,80.9999839 373.66,84.8400031 C369.059977,88.6800223 362.360044,90.6000031 353.56,90.6000031 C346.119963,90.6000031 340.120023,89.3600155 335.56,86.8800031 C330.999977,84.3999907 327.800009,80.8800259 325.96,76.3200031 C324.839994,73.3599883 325.799985,71.3600083 328.84,70.3200031 L336.16,67.9200031 C337.760008,67.3600003 338.959996,67.2400015 339.76,67.5600031 C340.560004,67.8800047 341.319996,68.8399951 342.04,70.4400031 C342.760004,71.9600107 343.979991,73.0999993 345.7,73.8600031 C347.420009,74.6200069 349.839984,75.0000031 352.96,75.0000031 C359.840034,75.0000031 363.28,73.3600195 363.28,70.0800031 C363.28,67.9999927 362.340009,66.6200065 360.46,65.9400031 C358.579991,65.2599997 355.280024,64.7200051 350.56,64.3200031 C347.439984,64.0000015 344.400015,63.5200063 341.44,62.8800031 C338.479985,62.2399999 335.860011,61.2000103 333.58,59.7600031 C331.299989,58.3199959 329.460007,56.4000151 328.06,54.0000031 C326.659993,51.5999911 325.96,48.4800223 325.96,44.6400031 Z M260.155341,52.8729638 C257.390476,52.8729638 256.409395,53.8540449 256.409395,56.708099 L256.409395,63.3972881 C256.409395,66.2513422 257.390476,67.1432341 260.155341,67.1432341 L266.717503,67.1432341 L266.717503,68.9270179 C266.717503,72.762153 263.060746,74.9918827 257.08507,74.9918827 C250.039124,74.9918827 247.274259,71.9594503 247.274259,65.7162071 L247.274259,49.4837746 C247.274259,43.2405314 250.039124,40.208099 257.08507,40.208099 C262.079665,40.208099 264.755341,41.9918827 266.360746,46.0053963 C267.341827,48.7702611 268.412097,49.3053963 271.176962,48.4135044 L280.720205,45.0243152 C283.395881,44.1324233 284.020205,42.7945854 283.128314,40.208099 C279.382368,30.2189098 270.820205,24.5999908 257.08507,24.5999908 C239.5148,24.5999908 229.6148,34.1432341 229.6148,49.5729638 L229.6148,65.6270179 C229.6148,81.0567476 239.5148,90.5999908 257.08507,90.5999908 C274.655341,90.5999908 284.466151,81.0567476 284.466151,68.4810719 L284.466151,56.708099 C284.466151,53.8540449 283.574259,52.8729638 280.720205,52.8729638 L260.155341,52.8729638 Z"></path>
                </g>
            </g>
        </g>
    </g>
</svg>