<?xml version="1.0" encoding="UTF-8"?>
<svg width="172px" height="59px" viewBox="0 0 172 59" version="1.1" xmlns="http://www.w3.org/2000/svg" xmlns:xlink="http://www.w3.org/1999/xlink">
    <title>brand</title>
    <defs>
        <polygon id="path-1" points="0 0 29.7275561 0 29.7275561 47.5641261 0 47.5641261"></polygon>
        <path d="M5.94552333,0 C2.66179067,0 0,2.66209332 0,5.94552333 L0,5.94552333 C0,9.22925599 2.66179067,11.890744 5.94552333,11.890744 L5.94552333,11.890744 C12.512686,11.890744 17.8362673,17.2149306 17.8362673,23.7820933 L17.8362673,23.7820933 C17.8362673,30.3495586 12.512686,35.6728373 5.94552333,35.6728373 L5.94552333,35.6728373 C9.22895334,35.6728373 11.8910467,38.3349306 11.8910467,41.6186633 L11.8910467,41.6186633 C11.8910467,44.902396 9.22895334,47.5641866 5.94552333,47.5641866 L5.94552333,47.5641866 C19.0798487,47.5641866 29.7276166,36.9167213 29.7276166,23.7820933 L29.7276166,23.7820933 C29.7276166,10.6474653 19.0798487,0 5.94552333,0 Z" id="path-3"></path>
        <linearGradient x1="-9.56986511e-05%" y1="49.9999388%" x2="99.9997241%" y2="49.9999388%" id="linearGradient-5">
            <stop stop-color="#26CF1D" offset="0%"></stop>
            <stop stop-color="#00F712" offset="100%"></stop>
        </linearGradient>
    </defs>
    <g id="Page-1" stroke="none" stroke-width="1" fill="none" fill-rule="evenodd">
        <g id="brand">
            <polygon id="Fill-1" fill="#536474" points="52.0300631 46.009483 61.1476419 46.009483 61.1476419 1.06380832 52.0300631 1.06380832"></polygon>
            <g id="Group-11">
                <path d="M100.762986,13.9051702 L87.3435662,51.1457251 C85.5458361,56.0897856 82.9130996,58.5294325 77.2632636,58.5294325 L67.6959496,58.5294325 L67.6959496,51.2740479 L76.0429861,51.2740479 C78.3543102,51.2740479 79.2534779,50.4390416 80.2165044,47.678285 L80.7942598,46.009483 L65.2563026,13.9051702 L75.1444237,13.9051702 L80.4731501,26.2329382 C82.3353443,30.4709206 82.5278285,33.8735939 82.5919899,38.1760404 L85.9952686,38.1760404 C86.05943,32.5252963 86.1235914,29.8928625 87.4721917,25.6551828 L91.2601362,13.9051702 L100.762986,13.9051702 Z" id="Fill-2" fill="#536474"></path>
                <path d="M105.962088,13.9051702 L114.180499,13.9051702 C114.116338,16.0240101 112.767738,18.785372 111.034774,21.2891803 L115.015506,21.2891803 C116.492126,16.7303909 119.702618,12.9421438 124.839163,12.9421438 C131.902063,12.9421438 135.754472,17.629256 135.754472,24.7563178 L135.754472,46.009483 L126.636893,46.009483 L126.636893,26.4898865 C126.636893,22.2522068 124.646376,20.4547793 121.500651,20.4547793 C115.144131,20.4547793 115.079667,27.3890542 115.079667,30.7920303 L115.079667,46.009483 L105.962088,46.009483 L105.962088,13.9051702 Z" id="Fill-4" fill="#536474"></path>
                <path d="M141.595369,37.7261538 L149.877942,35.0937201 C150.006567,35.8004035 150.969594,40.4869105 157.197488,40.4869105 C160.40798,40.4869105 162.07769,39.0747541 162.07769,37.2773266 C162.07769,35.8004035 161.371006,34.515662 158.096656,33.8737453 L153.537866,32.9748802 C146.796076,31.6265826 142.879203,29.3791173 142.879203,23.0870618 C142.879203,16.9874905 148.080212,12.9422951 156.683894,12.9422951 C164.709821,12.9422951 168.819178,17.1155107 170.231939,20.3263052 L162.719607,23.7289786 C161.75658,21.0965448 159.445256,19.2346532 156.234462,19.2346532 C153.152595,19.2346532 151.675975,20.5829508 151.675975,22.3162169 C151.675975,23.9859269 152.638699,24.8206305 156.106139,25.4625473 L160.536605,26.2972509 C166.572015,27.4530643 171.579934,30.2141236 171.579934,36.3139975 C171.579934,42.7343758 166.058421,46.9081967 156.683894,46.9081967 C149.107702,46.9081967 142.943364,43.3768979 141.595369,37.7261538" id="Fill-6" fill="#536474"></path>
                <g id="Group-10">
                    <mask id="mask-2" fill="white">
                        <use xlink:href="#path-1"></use>
                    </mask>
                    <g id="Clip-9"></g>
                    <path d="M23.7820328,11.8909861 C20.4983001,11.8909861 17.8365095,9.22919546 17.8365095,5.9454628 C17.8365095,2.66203279 20.4983001,-6.05296343e-05 23.7820328,-6.05296343e-05 C10.6477074,-6.05296343e-05 -6.05296343e-05,10.6477074 -6.05296343e-05,23.7820328 C-6.05296343e-05,36.9166608 10.6477074,47.5641261 23.7820328,47.5641261 C27.0657654,47.5641261 29.7275561,44.9023354 29.7275561,41.6186028 C29.7275561,38.3348701 27.0657654,35.6730794 23.7820328,35.6730794 C17.2148701,35.6730794 11.8909861,30.3494981 11.8909861,23.7820328 C11.8909861,17.2148701 17.2148701,11.8909861 23.7820328,11.8909861" id="Fill-8" fill="#00B0FF" mask="url(#mask-2)"></path>
                </g>
            </g>
            <g id="Group-14" transform="translate(17.836570, -0.000000)">
                <mask id="mask-4" fill="white">
                    <use xlink:href="#path-3"></use>
                </mask>
                <g id="Clip-13"></g>
                <path d="M5.94552333,0 C2.66179067,0 0,2.66209332 0,5.94552333 L0,5.94552333 C0,9.22925599 2.66179067,11.890744 5.94552333,11.890744 L5.94552333,11.890744 C12.512686,11.890744 17.8362673,17.2149306 17.8362673,23.7820933 L17.8362673,23.7820933 C17.8362673,30.3495586 12.512686,35.6728373 5.94552333,35.6728373 L5.94552333,35.6728373 C9.22895334,35.6728373 11.8910467,38.3349306 11.8910467,41.6186633 L11.8910467,41.6186633 C11.8910467,44.902396 9.22895334,47.5641866 5.94552333,47.5641866 L5.94552333,47.5641866 C19.0798487,47.5641866 29.7276166,36.9167213 29.7276166,23.7820933 L29.7276166,23.7820933 C29.7276166,10.6474653 19.0798487,0 5.94552333,0 Z" id="Fill-12" fill="url(#linearGradient-5)" mask="url(#mask-4)"></path>
            </g>
        </g>
    </g>
</svg>