<?xml version="1.0" standalone="no"?>
<!DOCTYPE svg PUBLIC "-//W3C//DTD SVG 20010904//EN"
 "http://www.w3.org/TR/2001/REC-SVG-20010904/DTD/svg10.dtd">
<svg version="1.0" xmlns="http://www.w3.org/2000/svg"
 width="1000.000000pt" height="1000.000000pt" viewBox="0 0 1000.000000 1000.000000"
 preserveAspectRatio="xMidYMid meet">
<metadata>
Created by potrace 1.14, written by Peter Selinger 2001-2017
</metadata>
<g transform="translate(0.000000,1000.000000) scale(0.100000,-0.100000)"
fill="#000000" stroke="none">
<path d="M0 5000 l0 -5000 5000 0 5000 0 0 5000 0 5000 -5000 0 -5000 0 0
-5000z m4135 3011 c51 -23 101 -75 116 -118 l11 -33 170 0 170 0 34 -34 34
-34 0 -271 c0 -257 -1 -271 -19 -281 -26 -13 -33 -13 -57 4 -18 13 -19 32 -24
268 l-5 253 -150 3 -151 2 -17 -39 c-33 -74 -119 -131 -197 -131 -75 0 -161
55 -194 124 -18 39 -21 131 -5 173 39 104 181 161 284 114z m943 3 c112 -47
166 -187 113 -293 -23 -45 -81 -98 -116 -107 l-25 -6 0 -171 c0 -145 -3 -173
-17 -189 -20 -22 -46 -23 -67 -2 -13 13 -16 44 -16 188 l0 172 -34 12 c-87 32
-146 146 -125 242 29 129 169 204 287 154z m950 0 c112 -47 166 -187 113 -293
-85 -165 -305 -158 -392 12 l-19 37 -143 0 c-98 0 -147 -4 -155 -12 -9 -9 -12
-80 -12 -260 l0 -248 -24 -11 c-17 -8 -29 -8 -45 0 -21 11 -21 17 -21 282 l0
271 34 34 34 34 165 0 164 0 34 57 c57 97 170 138 267 97z m-883 -849 c232
-59 404 -256 434 -497 10 -84 -2 -118 -43 -118 -34 0 -44 18 -56 98 -29 209
-154 359 -349 418 -67 20 -207 18 -280 -5 -178 -55 -306 -212 -334 -408 -12
-81 -15 -89 -40 -97 -21 -8 -31 -6 -47 9 -24 22 -25 54 -5 150 46 215 214 394
425 449 73 19 221 20 295 1z m-1502 -166 c49 -13 109 -67 132 -119 l18 -40
242 0 c255 0 265 -2 265 -46 0 -49 -26 -54 -277 -54 l-233 0 -14 -32 c-31 -74
-113 -127 -197 -128 -63 0 -139 40 -175 92 -39 55 -46 155 -16 214 51 99 149
143 255 113z m2837 1 c49 -13 109 -66 131 -114 68 -150 -49 -319 -211 -304
-70 7 -135 49 -168 108 l-27 50 -227 0 c-125 0 -238 4 -251 9 -27 11 -37 36
-27 66 7 19 19 20 256 25 l249 5 15 31 c53 107 152 154 260 124z m-1369 -197
c60 -31 112 -92 129 -151 6 -23 10 -209 10 -490 l0 -452 43 22 c85 45 198 26
284 -46 l30 -25 24 25 c81 87 222 93 325 15 l50 -38 39 34 c124 107 317 63
386 -89 l24 -53 0 -670 c0 -751 2 -722 -74 -880 -69 -141 -171 -245 -314 -317
-126 -63 -169 -68 -591 -68 -406 0 -444 4 -539 51 -116 58 -221 174 -304 334
-22 44 -71 157 -108 250 -36 94 -89 229 -117 300 -28 72 -78 184 -112 250 -58
114 -61 124 -61 190 1 82 23 134 81 185 52 45 93 60 164 60 104 0 161 -36 231
-145 l39 -60 0 800 0 800 24 51 c60 129 210 181 337 117z m-1216 -452 c46 -20
102 -79 111 -116 l6 -25 241 0 c210 0 243 -2 259 -17 21 -18 24 -53 6 -71 -9
-9 -79 -12 -255 -12 l-243 0 -16 -40 c-9 -22 -34 -56 -56 -74 -185 -159 -446
60 -322 271 53 91 172 129 269 84z m2394 -7 c147 -74 154 -274 12 -371 -98
-67 -240 -25 -301 90 l-25 47 -241 0 c-253 0 -264 2 -264 46 0 52 13 54 271
54 l239 0 10 24 c15 39 72 98 115 117 58 27 121 24 184 -7z m-2382 -572 c48
-25 78 -57 98 -105 l15 -37 243 0 c176 0 246 -3 255 -12 17 -17 15 -48 -5 -70
-15 -16 -36 -18 -258 -18 l-243 0 -6 -25 c-10 -40 -73 -102 -121 -121 -62 -23
-142 -15 -195 20 -150 99 -117 331 56 386 41 13 116 4 161 -18z m-477 -2882
l105 -210 105 210 105 210 62 0 63 0 0 -320 0 -320 -50 0 -50 0 -1 233 0 232
-100 -197 -99 -198 -35 0 -35 0 -99 198 -100 197 0 -232 -1 -233 -55 0 -55 0
0 320 0 320 68 0 67 0 105 -210z m1107 -93 c73 -167 135 -311 139 -321 6 -15
0 -17 -52 -14 l-58 3 -28 65 -27 65 -166 0 -167 0 -27 -65 -28 -65 -58 -3
c-44 -2 -56 0 -52 10 3 7 60 137 127 288 68 151 129 290 136 308 14 31 16 32
72 32 l57 0 132 -303z m713 258 l0 -45 -100 0 -100 0 0 -275 0 -275 -55 0 -55
0 0 275 0 275 -100 0 -100 0 0 45 0 45 255 0 255 0 0 -45z m580 0 l0 -45 -100
0 -100 0 0 -275 0 -275 -55 0 -55 0 0 275 0 275 -100 0 -100 0 0 45 0 45 255
0 255 0 0 -45z m250 -275 l0 -320 -55 0 -55 0 0 320 0 320 55 0 55 0 0 -320z
m657 30 c68 -157 130 -300 138 -317 l14 -33 -58 0 -59 0 -28 70 -29 70 -165 0
-165 0 -29 -70 -28 -70 -54 0 c-30 0 -54 3 -54 8 0 4 62 148 137 320 l138 313
59 -3 59 -3 124 -285z m-3900 -1012 c50 -18 103 -53 103 -66 0 -4 -13 -22 -29
-41 l-28 -35 -28 22 c-32 26 -114 52 -161 52 -40 0 -108 -24 -141 -50 -132
-104 -111 -304 41 -382 57 -30 155 -30 214 0 l42 22 0 90 0 90 45 0 45 0 0
-123 0 -123 -37 -21 c-76 -42 -140 -56 -232 -51 -102 5 -162 32 -228 100 -61
63 -86 126 -86 218 0 92 25 155 86 218 100 103 249 134 394 80z m755 -298 c76
-173 138 -316 138 -317 0 -2 -26 -3 -57 -3 l-58 0 -29 70 -29 70 -165 -2 -165
-3 -28 -65 -27 -65 -56 -3 c-31 -2 -56 -1 -56 3 0 5 268 613 277 627 2 5 30 8
61 6 l56 -3 138 -315z m693 285 c72 -45 97 -98 93 -196 -2 -62 -8 -83 -30
-117 -16 -23 -44 -50 -63 -60 l-35 -18 70 -101 c38 -56 70 -104 70 -107 0 -3
-27 -6 -60 -6 l-59 0 -57 95 -56 95 -94 0 -94 0 0 -95 0 -95 -55 0 -55 0 0
321 0 321 188 -4 189 -3 48 -30z m710 0 c72 -45 97 -98 93 -196 -2 -62 -8 -83
-30 -117 -16 -23 -44 -50 -63 -60 l-35 -18 70 -101 c38 -56 70 -104 70 -107 0
-3 -27 -6 -60 -6 l-59 0 -57 95 -56 95 -94 0 -94 0 0 -95 0 -95 -55 0 -55 0 0
321 0 321 188 -4 189 -3 48 -30z m755 -10 l0 -45 -175 0 -175 0 0 -90 0 -90
155 0 155 0 0 -50 0 -50 -155 0 -155 0 0 -85 0 -85 180 0 180 0 0 -50 0 -50
-235 0 -235 0 0 320 0 320 230 0 230 0 0 -45z m620 0 l0 -45 -162 -2 -163 -3
-3 -92 -3 -93 151 0 151 0 -3 -47 -3 -48 -147 -3 -148 -3 0 -129 0 -130 -55 0
-55 0 0 320 0 320 220 0 220 0 0 -45z m570 0 l0 -45 -160 0 -160 0 0 -95 0
-95 145 0 145 0 0 -50 0 -50 -145 0 -145 0 0 -130 0 -130 -55 0 -55 0 0 320 0
320 215 0 215 0 0 -45z m594 -267 c75 -172 136 -317 136 -321 0 -4 -25 -7 -56
-5 l-56 3 -27 65 -28 65 -165 3 -165 2 -29 -70 -29 -70 -57 0 -58 0 26 58 c14
31 77 175 141 320 l116 262 57 0 57 0 137 -312z"/>
<path d="M4005 7921 c-50 -22 -81 -87 -65 -136 18 -54 54 -80 112 -80 43 0 53
4 79 33 62 69 24 178 -66 187 -22 3 -49 1 -60 -4z"/>
<path d="M4955 7921 c-27 -12 -61 -51 -70 -79 -9 -31 10 -84 41 -113 36 -34
112 -34 148 0 72 68 35 187 -60 197 -21 2 -48 0 -59 -5z"/>
<path d="M5874 7898 c-33 -31 -38 -41 -38 -82 0 -37 6 -52 29 -76 74 -77 195
-30 195 76 0 62 -39 104 -102 111 -42 5 -49 2 -84 -29z"/>
<path d="M3535 6901 c-27 -12 -51 -40 -65 -75 -24 -65 37 -146 112 -146 32 0
47 7 74 34 29 29 34 41 34 80 0 61 -37 105 -95 111 -22 3 -49 1 -60 -4z"/>
<path d="M6375 6900 c-58 -24 -86 -100 -59 -157 51 -105 214 -67 214 50 0 49
-19 81 -60 102 -32 16 -64 18 -95 5z"/>
<path d="M4926 6707 c-21 -12 -47 -38 -57 -57 -18 -33 -19 -77 -19 -925 0
-715 -3 -895 -13 -909 -9 -12 -23 -17 -42 -14 -26 3 -38 18 -111 143 -96 165
-127 196 -202 197 -41 1 -58 -4 -87 -27 -40 -30 -65 -77 -65 -124 0 -16 18
-63 40 -105 58 -110 107 -223 195 -456 130 -344 190 -462 289 -567 81 -88 168
-130 296 -144 146 -17 679 -6 755 15 170 47 311 160 386 311 60 121 59 109 59
839 0 668 0 669 -22 704 -26 43 -96 76 -142 68 -46 -9 -93 -41 -113 -78 -15
-28 -18 -68 -23 -256 -4 -183 -8 -224 -20 -232 -21 -13 -33 -12 -56 4 -18 13
-19 31 -24 243 -6 259 -7 264 -88 304 -69 34 -134 15 -186 -55 -20 -25 -21
-43 -24 -249 -2 -211 -4 -223 -23 -239 -27 -23 -35 -22 -59 2 -19 19 -20 33
-20 234 0 204 -1 214 -22 246 -37 54 -73 75 -128 75 -52 0 -87 -19 -124 -69
-20 -25 -21 -43 -24 -252 l-3 -224 -25 -16 c-22 -15 -26 -15 -49 0 l-25 16 -2
759 c-3 753 -3 760 -24 788 -54 72 -127 91 -198 50z m1079 -2031 c28 -20 15
-110 -30 -203 -66 -140 -214 -252 -390 -297 -149 -37 -421 -49 -463 -20 -24
17 -29 56 -9 72 6 5 86 12 177 15 234 8 347 38 466 122 87 63 164 184 164 261
0 26 32 64 53 64 7 0 21 -6 32 -14z"/>
<path d="M3749 6256 c-36 -21 -63 -79 -55 -120 13 -71 101 -115 164 -82 43 22
62 53 62 103 0 61 -39 103 -100 109 -28 3 -55 -1 -71 -10z"/>
<path d="M6114 6236 c-29 -29 -34 -41 -34 -79 0 -133 172 -159 220 -33 16 42
4 81 -36 116 -50 44 -104 42 -150 -4z"/>
<path d="M3770 5693 c-30 -11 -70 -57 -76 -89 -8 -42 20 -100 57 -119 49 -26
97 -19 135 19 36 36 44 78 24 130 -17 47 -90 77 -140 59z"/>
<path d="M4286 2850 c-31 -73 -56 -136 -56 -141 0 -5 51 -9 115 -9 63 0 115 4
115 8 0 8 -109 264 -114 270 -2 1 -29 -56 -60 -128z"/>
<path d="M6488 2842 c-32 -75 -56 -137 -54 -139 2 -2 55 -2 119 -1 l116 3 -55
130 c-30 71 -58 133 -62 137 -4 4 -33 -55 -64 -130z"/>
<path d="M3369 1654 c-11 -27 -38 -91 -59 -141 l-39 -93 119 0 c66 0 120 2
120 4 0 5 -112 270 -116 275 -2 2 -13 -18 -25 -45z"/>
<path d="M3978 1725 c-5 -5 -8 -64 -8 -132 l0 -123 93 0 c156 0 206 28 214
117 8 98 -37 131 -189 140 -57 3 -106 2 -110 -2z"/>
<path d="M4688 1725 c-5 -5 -8 -64 -8 -132 l0 -123 93 0 c156 0 206 28 214
117 8 98 -37 131 -189 140 -57 3 -106 2 -110 -2z"/>
<path d="M7276 1564 c-31 -75 -55 -138 -53 -140 2 -3 56 -3 119 -2 l115 3 -57
132 c-31 73 -58 135 -61 137 -3 3 -31 -56 -63 -130z"/>
</g>
</svg>
